<svg width="26" height="21" viewBox="0 0 26 21" fill="none" xmlns="http://www.w3.org/2000/svg">
<path d="M2.63818 0.707214H15.1382C15.8972 0.707214 16.5132 1.3232 16.5132 2.08221V4.45721H18.7358C19.0525 4.45721 19.3598 4.56864 19.605 4.76971L19.7065 4.86151L23.6089 8.76385C23.8677 9.02264 24.0132 9.37247 24.0132 9.73456V14.4572H25.1382C25.2058 14.4572 25.2632 14.5146 25.2632 14.5822V15.8322C25.2632 15.8998 25.2058 15.9572 25.1382 15.9572H22.7632V16.4572C22.7632 18.2514 21.3074 19.7072 19.5132 19.7072C17.719 19.7072 16.2632 18.2514 16.2632 16.4572V15.9572H10.2632V16.4572C10.2632 18.2514 8.80735 19.7072 7.01318 19.7072C5.21901 19.7072 3.76318 18.2514 3.76318 16.4572V15.9572H2.63818C1.87917 15.9572 1.26318 15.3412 1.26318 14.5822V2.08221C1.26318 1.3232 1.87917 0.707214 2.63818 0.707214ZM7.01318 14.0822C5.70188 14.0822 4.63818 15.1459 4.63818 16.4572C4.63818 17.7685 5.70188 18.8322 7.01318 18.8322C8.32448 18.8322 9.38818 17.7685 9.38818 16.4572C9.38818 15.1459 8.32448 14.0822 7.01318 14.0822ZM19.5132 14.0822C18.2019 14.0822 17.1382 15.1459 17.1382 16.4572C17.1382 17.7685 18.2019 18.8322 19.5132 18.8322C20.8245 18.8322 21.8882 17.7685 21.8882 16.4572C21.8882 15.1459 20.8245 14.0822 19.5132 14.0822ZM7.95068 3.45721C7.50267 3.45721 7.13818 3.8217 7.13818 4.26971V5.95721H5.45068C5.00267 5.95721 4.63818 6.3217 4.63818 6.76971V8.64471C4.63818 9.09273 5.00267 9.45721 5.45068 9.45721H7.13818V11.1447C7.13818 11.5927 7.50267 11.9572 7.95068 11.9572H9.82568C10.2737 11.9572 10.6382 11.5927 10.6382 11.1447V9.45721H12.3257C12.7737 9.45721 13.1382 9.09273 13.1382 8.64471V6.76971C13.1382 6.3217 12.7737 5.95721 12.3257 5.95721H10.6382V4.26971C10.6382 3.8217 10.2737 3.45721 9.82568 3.45721H7.95068ZM23.1382 9.52753L18.9429 5.33221H16.5132V10.7072H23.1382V9.52753Z" fill="#F3151D" stroke="black"/>
</svg>
